<?xml version="1.0" standalone="no"?>
<!DOCTYPE svg PUBLIC "-//W3C//DTD SVG 20010904//EN"
 "http://www.w3.org/TR/2001/REC-SVG-20010904/DTD/svg10.dtd">
<svg version="1.0" xmlns="http://www.w3.org/2000/svg"
 width="1608.000000pt" height="1608.000000pt" viewBox="0 0 1608.000000 1608.000000"
 preserveAspectRatio="xMidYMid meet">
<metadata>
Created by potrace 1.14, written by Peter Selinger 2001-2017
</metadata>
<g transform="translate(0.000000,1608.000000) scale(0.100000,-0.100000)"
fill="#000000" stroke="none">
<path d="M5627 13649 c-1319 -1320 -2397 -2405 -2395 -2410 2 -6 721 -728
1598 -1605 l1594 -1594 -793 -793 -793 -793 -1598 1598 c-879 879 -1601 1598
-1604 1598 -11 0 -1606 -1599 -1606 -1610 0 -15 4800 -4812 4811 -4808 5 2
727 721 1604 1598 l1595 1594 790 -790 c434 -434 790 -792 790 -796 0 -4 -718
-725 -1595 -1602 -877 -877 -1595 -1597 -1595 -1600 0 -11 1600 -1606 1610
-1606 16 0 4812 4800 4808 4811 -2 6 -721 728 -1598 1605 l-1594 1594 793 793
793 793 1599 -1599 c1430 -1430 1601 -1598 1616 -1586 44 36 1593 1590 1593
1599 0 15 -4800 4812 -4811 4808 -5 -2 -727 -721 -1604 -1598 l-1595 -1594
-790 789 c-434 435 -790 793 -790 797 0 4 718 725 1595 1602 877 877 1595
1597 1595 1600 0 13 -1601 1606 -1612 1605 -7 0 -1092 -1081 -2411 -2400z"/>
</g>
</svg>
